<?xml version="1.0" encoding="UTF-8"?>
<svg viewBox="0 0 643.23822 690.24652" xmlns="http://www.w3.org/2000/svg" xmlns:xlink="http://www.w3.org/1999/xlink">
 <defs>
  <clipPath id="x">
   <path d="m329.71 274.18-119.27 41.146c-11.512 22.677-28.434 57.025-46.786 97.299l483.96-7.7962c12.787-26.872 24.993-50.599 35.478-69.363 11.008-19.7 17.114-43.779 17.696-67.263l-371.08 5.9778z"/>
  </clipPath>
  <clipPath id="w">
   <path d="m46.344 878.56c-7.033-447.07 5.6704-769.51 55.263-792.17l446.22-71.979c-47.012 18.026-53.869 411.68-40.6 939.73l-460.89-75.577z"/>
  </clipPath>
  <filter id="i" x="-.13059" y="-.111" width="1.2612" height="1.222">
   <feGaussianBlur stdDeviation="19.6409"/>
  </filter>
  <filter id="h" x="-.13802" y="-.11018" width="1.276" height="1.2204">
   <feGaussianBlur stdDeviation="22.6942"/>
  </filter>
  <filter id="v" x="-.04864" y="-.31784" width="1.0973" height="1.6357">
   <feGaussianBlur stdDeviation="8.27103"/>
  </filter>
  <filter id="g" x="-.16351" y="-.41362" width="1.327" height="1.8272">
   <feGaussianBlur stdDeviation="3.65239"/>
  </filter>
  <linearGradient id="a">
   <stop stop-color="#beae82" offset="0"/>
   <stop stop-color="#d9cece" stop-opacity="0" offset="1"/>
  </linearGradient>
  <linearGradient id="d">
   <stop stop-color="#c6b380" offset="0"/>
   <stop stop-color="#dad3b8" offset=".28449"/>
   <stop stop-color="#d1c79f" offset=".58602"/>
   <stop stop-color="#a38f6b" offset="1"/>
  </linearGradient>
  <linearGradient id="e">
   <stop stop-color="#897353" offset="0"/>
   <stop stop-color="#9e8967" offset=".1481"/>
   <stop stop-color="#dbd0ab" offset=".66517"/>
   <stop stop-color="#c5ae70" offset="1"/>
  </linearGradient>
  <linearGradient id="f">
   <stop stop-color="#dfd5b8" offset="0"/>
   <stop stop-color="#ebe3c2" offset=".33777"/>
   <stop stop-color="#e2d9bb" offset=".64154"/>
   <stop stop-color="#ccbc92" offset="1"/>
  </linearGradient>
  <linearGradient id="u" x1="573.94" x2="572.15" y1="267.57" y2="324.04" gradientUnits="userSpaceOnUse">
   <stop stop-color="#baa877" offset="0"/>
   <stop stop-color="#a38f6b" offset=".3434"/>
   <stop stop-color="#d5c89d" offset=".55113"/>
   <stop stop-color="#c2af7d" offset="1"/>
  </linearGradient>
  <linearGradient id="b">
   <stop stop-color="#ede7e7" offset="0"/>
   <stop stop-color="#e7e0e0" stop-opacity="0" offset="1"/>
  </linearGradient>
  <linearGradient id="o" x1="549.04" x2="544.55" y1="238.18" y2="311.42" gradientTransform="matrix(1.0608 .08986 -.12806 1.5117 -42.112 286.57)" gradientUnits="userSpaceOnUse">
   <stop stop-color="#bdaa80" offset="0"/>
   <stop stop-color="#ccc39d" offset=".28449"/>
   <stop stop-color="#cdc296" offset=".58602"/>
   <stop stop-color="#927e5b" offset="1"/>
  </linearGradient>
  <linearGradient id="l" x2="0" y1="164.94" y2="320.51" gradientTransform="matrix(.99764 .09186 -.06873 1.3332 20.187 -156.01)" gradientUnits="userSpaceOnUse">
   <stop stop-color="#694f33" offset="0"/>
   <stop stop-color="#694f33" stop-opacity="0" offset="1"/>
  </linearGradient>
  <linearGradient id="t" x1="562.55" x2="556.33" y1="238.97" y2="358.7" gradientUnits="userSpaceOnUse" xlink:href="#e"/>
  <linearGradient id="s" x1="279.93" x2="270.89" y1="122.47" y2="644.37" gradientUnits="userSpaceOnUse" xlink:href="#b"/>
  <linearGradient id="r" x1="273.67" x2="269.59" y1="54.877" y2="551.29" gradientUnits="userSpaceOnUse" xlink:href="#a"/>
  <linearGradient id="q" x1="347.13" x2="284.68" y1="292.22" y2="922.22" gradientUnits="userSpaceOnUse" xlink:href="#b"/>
  <linearGradient id="p" x1="550.53" x2="550.41" y1="233.41" y2="310.02" gradientUnits="userSpaceOnUse" xlink:href="#d"/>
  <linearGradient id="c" x1="562.55" x2="556.33" y1="238.97" y2="358.7" gradientTransform="matrix(1.0608 .08986 -.12806 1.5117 -42.112 286.57)" gradientUnits="userSpaceOnUse" xlink:href="#e"/>
  <linearGradient id="n" x1="550.53" x2="550.41" y1="233.41" y2="310.02" gradientTransform="matrix(1.0608 .08986 -.12806 1.5117 -42.112 286.57)" gradientUnits="userSpaceOnUse" xlink:href="#d"/>
  <linearGradient id="m" x1="141.15" x2="592.47" y1="466.3" y2="503.44" gradientUnits="userSpaceOnUse" xlink:href="#f"/>
  <linearGradient id="k" x1="292.12" x2="299.65" y1="182.79" y2="337.08" gradientUnits="userSpaceOnUse" xlink:href="#f" spreadMethod="reflect"/>
  <linearGradient id="j" x1="281.44" x2="273.61" y1="-30.204" y2="536.54" gradientUnits="userSpaceOnUse" xlink:href="#a"/>
 </defs>
 <g transform="translate(-22.09 -165.09)">
  <path d="m526.97 844.32c19.627 2.5462 41.906-7.9857 47.664-56.009s-7.1357-81.642-28.612-84.712c-22.476-0.56939-104.69-7.8662-105.99 19.397-0.95722 96.263 50.876 117.08 86.938 121.32z" fill="url(#c)"/>
  <path transform="matrix(1.0608 .08986 -.12806 1.5117 72.718 -479.89)" d="m488.14 799.97c1.8755 6.6279-3.9253 9.507 0.41138 13.489s34.721 7.6526 40.377 7.3781c8.6514 2.0206 15.578-5.5628 8.9301-17.332-11.787 0.0997-38.712-1.9468-49.718-3.5355z" fill="#ae8a69" filter="url(#g)"/>
  <g transform="matrix(.37494 0 0 .39324 332.53 474.51)">
   <path d="m526.97 844.32c19.627 2.5462 41.906-7.9857 47.664-56.009s-7.1357-81.642-28.612-84.712-104.69-7.8662-105.99 19.397c-0.95722 96.263 50.876 117.08 86.938 121.32z" fill="url(#c)"/>
   <path d="m451.93 703.71-9.0367 82.676c24.904 2.912 81.496 19.46 83.347 20.002-13.713-4.0537-16.219-24.909-15.039-49.616 1.2875-26.956 12.93-55.594 34.103-53.257l4e-3 -0.0471c-30.125-5.0572-71.204-2.4406-93.379 0.2418zm74.311 102.68 0.61787 0.19501 4e-3 -0.0471c-0.20592-0.0526-0.41788-0.0875-0.62188-0.14782z" fill="url(#n)"/>
  </g>
  <path d="m451.35 703.49-8.4535 82.898c24.904 2.912 81.496 19.46 83.347 20.002-13.713-4.0537-16.219-24.909-15.039-49.616 1.2875-26.956 12.93-55.594 34.103-53.257l4e-3 -0.0471c-26.958-3.5323-71.87 1.0063-93.963 0.02zm74.894 102.9 0.61787 0.19501 4e-3 -0.0471c-0.20592-0.0526-0.41788-0.0875-0.62188-0.14782z" fill="url(#o)"/>
  <path d="m637.5 323.49 10.875-15.25 1-7-12.562 17.438z" fill="#af9c76"/>
  <path d="m637.88 315.74 1.125 4.125 0.25 12.375-3.125 5.875z" fill="#b4a27b"/>
  <path d="m534.55 472.45 39.586-1.0953 1.0732-2.7662-39.329 2.2436z" fill="#907b5a"/>
  <path d="m551.75 482.11 18.75-2.25 1-3.25-20.5 3.25z" fill="#907b5a"/>
  <path d="m70.27 676.37-29.789 14.48 2.1213-6.1872 14.142-8.1317z" fill="#877355"/>
  <path d="m104.19 207.61-24.25-0.4375 2.9375-2.5625 21.812 1.1875z" fill="#877355"/>
  <path d="m584.09 176.31c-2.3963 6e-3 -4.8452 0.11954-7.375 0.34375l-391 134.28c-35.037 69.865-121.19 250.53-143.5 377.66l11.562-7.5938-13.406 19.031c-10.159 68.547 0.34556 119.11 51.062 123.75l440.34 21.094c-87.48-7.057-29.634-205.11 35.656-361.69l-11.719-2.4688 13.75-2.4062c0.44328-1.0547 0.89996-2.1056 1.3438-3.1562l-33.656-3.4062 36.031-2.1875c22.241-52.188 44.878-98.842 62.531-130.88 0.99126-1.7987 1.931-3.6295 2.8438-5.5v-13.688l10.25-14.781c14.562-58.309-3.1835-128.56-64.719-128.41z" fill="url(#m)"/>
  <path d="m285.71 339.51c-99.454 39.326-100.31 122.92-124.29 227.14-13.567 58.983-82.318 155.58-22.857 144.29 81.699-15.513 123.21 5.5929 228.57 41.429 61.05 20.764 57.238-111.08 70-174.29 14.999-74.289 64.242-118.89 21.429-181.43-38.621-56.413-109.28-82.282-172.86-57.143z" fill="url(#q)" filter="url(#i)"/>
  <path transform="matrix(.95267 .01611 -.01371 .99986 -10.443 -7.7304)" d="m202.04 280.86 453.83-27.273c17.659 36.305 0.98247 85.469-46.74 81.822h-407.09z" clip-path="url(#x)" fill="#ac8d7b" filter="url(#v)" opacity=".64286"/>
  <path d="m584.09 176.31c-2.3963 6e-3 -4.8452 0.11954-7.375 0.34375l-93.375 32.062-5.5 106.75 160.72 14.781v-10.75l10.219-14.75c14.583-58.314-3.1366-128.59-64.688-128.44z" fill="url(#l)"/>
  <path d="m576.84 334.65c18.571 0.58036 38.588-7.5762 40.17-39.437s-13.151-53.224-33.495-54.045-98.605 0.65799-97.663 18.636c6.736 63.276 90.988 74.845 90.988 74.845z" fill="url(#t)"/>
  <path d="m534.85 290.19c1.8755 6.6279-3.9253 9.507 0.41138 13.489s34.721 7.6526 40.377 7.3781c8.6514 2.0206 15.578-5.5628 8.9301-17.332-11.787 0.0997-38.712-1.9468-49.718-3.5355z" fill="#ae8a69" filter="url(#g)"/>
  <path d="m550.41 287.72c3.751 13.256 13.566 22.83 24.878 22.281 9.005 0.60639 16.992-10.513 10.344-22.281-11.787 0.0997-24.216 1.5887-35.223 0z" fill="url(#u)"/>
  <path d="m493.56 301.28c23.54 0.527 77.818 8.2471 79.594 8.5-13.156-1.8995-17.155-15.457-18.009-31.75 0.29913-26.949 13.796-35.854 28.821-38.031 0 0-77.638 1.8616-87.281 2.9688zm79.594 8.5 0.59375 0.0937v-0.0312c-0.19689-0.0231-0.39804-0.0342-0.59375-0.0625z" fill="url(#p)"/>
  <path d="m576.78 176.66c-206.11 7.5772-341.39 17.7-469.28 14.125-10.349 3.1529-18.675 8.3766-25.188 14.906l20.531 0.96875-25.5 4.7188c-28.643 37.465-9.6683 105.96 30.156 109.12 158.49-4.6317 316.12 5.1502 469.28 14.156-54.304-14.729-59.476-138.55 0-158z" fill="url(#k)"/>
 </g>
 <path transform="matrix(1.0476 0 0 .14536 12.439 12.722)" d="m92.942 156.12c-9.0635 83.552-28.272 209.63-13.85 350.67 71.772-74.144 237.23-61.099 361.62 44.043-9.4503-98.858-9.1062-330.19 4.7001-422.21-95.15 68.717-263.35 98.172-352.48 27.497z" fill="url(#s)" filter="url(#i)"/>
 <path transform="matrix(.98733 .02383 .00312 -.14532 -31.241 668.82)" d="m87.632 217.81c-9.0635 83.552-37.297 244.74-22.875 385.78 71.772-74.144 259.27-220.53 383.66-115.39-9.4503-98.858 2.552-242.33 16.358-334.35-96.495-9.131-288.01 25.642-377.14 63.966z" clip-path="url(#w)" fill="url(#j)" filter="url(#h)" opacity=".87302"/>
 <path transform="matrix(.98714 -.03066 -.0049 -.14527 6.4005 180.55)" d="m87.632 217.81c-9.0635 83.552-37.297 244.74-22.875 385.78 71.772-74.144 290.61-296.68 415-191.54-9.4503-98.858 8.6164-257.52 22.423-349.54-95.083 62.384-323.23 228.25-414.55 155.3z" fill="url(#r)" filter="url(#h)" opacity=".53175"/>
 <g transform="translate(-22.09 -165.09)">
  <path d="m540.45 298.85 0.34773 0.83667c3.8203 9.1209 8.8969 17.878 15.814 25.089 5.224 5.5082 11.937 10.283 19.765 11.256h2e-5c6.5157 0.77108 13.318 0.29154 19.506-2.2023 5.257-2.1403 9.8437-5.7476 13.272-10.225v-1e-5c3.5119-4.5968 5.8648-9.955 7.318-15.472 1.5616-5.9111 2.151-12.036 2-18.108-0.28326-12.035-3.2711-24.199-9.7288-34.425-2.8069-4.4518-6.3877-8.5234-10.853-11.441l-2e-5 -1e-5c-4.2214-2.7505-9.2506-4.2649-14.301-4.1246h-1e-5c-4.6694 0.13082-9.3562 1.2172-13.496 3.459-3.7166 2.0224-6.8998 4.9363-9.3515 8.3503l-1e-5 1e-5c-2.4924 3.4728-4.2625 7.4099-5.4286 11.484-1.2083 4.216-1.7942 8.5917-1.8489 12.96-0.11519 8.3119 1.5574 16.824 5.8416 24.005 1.8254 3.063 4.2085 5.8661 7.2185 7.8613l1e-5 1e-5c2.8804 1.9018 6.3278 2.9177 9.7774 2.8326 2.3522-0.0542 4.729-0.73106 6.6569-2.1446 1.8085-1.3434 3.1178-3.2504 3.9044-5.3174 0.9649-2.5489 1.2716-5.2517 1.1146-7.9465-0.0133-0.2431-0.0304-0.48616-0.0512-0.72906-0.17625-1.9496-0.63908-3.7307-1.0797-4.9811s-0.84085-1.9825-0.96139-1.9411 0.0436 0.85078 0.29334 2.1239 0.57105 3.0171 0.72638 4.8869c0.0206 0.23276 0.0377 0.46547 0.0512 0.69802 0.14052 2.5789-0.16137 5.1344-1.0968 7.5009-0.74601 1.8971-1.9445 3.632-3.5634 4.8018-1.7048 1.2503-3.8685 1.8359-6.02 1.8807-3.2 0.0611-6.4089-0.91308-9.0662-2.6955-2.8055-1.8738-5.0376-4.5558-6.7767-7.4998v-1e-5c-4.0927-6.9358-5.6361-15.211-5.4861-23.312 0.0846-4.2478 0.68105-8.4859 1.877-12.545 1.1566-3.9195 2.8737-7.6792 5.2629-10.949l1e-5 -1e-5c2.3417-3.2072 5.3554-5.9317 8.8347-7.7867 3.867-2.0723 8.292-3.0535 12.714-3.1552h1e-5c4.6446-0.10771 9.2998 1.3401 13.188 3.9085 4.1548 2.7359 7.5063 6.6287 10.181 10.907 6.1641 9.8755 8.9501 21.686 9.1662 33.382 0.10068 5.8876-0.50493 11.789-2.0431 17.431-1.4378 5.2588-3.685 10.311-6.9882 14.547-3.1958 4.1081-7.4459 7.4081-12.25 9.3133-5.6616 2.2709-12.018 2.6422-18.183 1.8963-6.8737-0.78587-12.965-5.3174-17.966-10.519l-1e-5 -1e-5c-6.5532-6.8981-11.362-15.376-15.036-24.266-0.1118-0.2715-0.22252-0.54345-0.33215-0.81585-0.13033-0.32584-0.26137-0.65259-0.39232-0.97822-8.5384-21.365-10.456-45.499-4.762-67.815 3.248-12.68 7.9936-25.137 15.864-35.439l1e-5 -1e-5c3.3622-4.4004 7.3198-8.3657 11.968-11.255 4.395-2.7379 9.4447-4.4552 14.598-4.7911 15.445-1.003 31.519 2.7562 43.583 12.368l1e-5 1e-5c12.725 10.078 20.333 25.663 23.751 41.685 3.0945 14.588 5.2929 29.442 4.7749 44.305-0.24442 7.1042-1.2674 14.163-2.6989 21.154l-0.1465 0.69624c-0.77215 3.73-1.7148 10.59-1.4673 10.651s1.6518-6.6965 2.4664-10.438c0.0495-0.23326 0.0986-0.46661 0.14727-0.70006 1.488-7.0192 2.5679-14.13 2.8689-21.318 0.62174-15.001-1.4804-29.984-4.4918-44.653-3.3285-16.302-11.004-32.255-24.06-42.811l-1e-5 -1e-5c-12.455-10.011-28.963-14.045-44.861-13.095-5.5376 0.33029-10.943 2.1181-15.659 5.0143-4.957 3.0504-9.1528 7.1751-12.669 11.731v1e-5c-8.2012 10.628-13.189 23.359-16.551 36.227-5.9937 22.861-4.2256 47.611 4.4084 69.645 0.131 0.33638 0.2659 0.67247 0.4038 1.0061z" fill="#ece1d9"/>
  <path d="m638.56 333.19c-0.22459-0.12054-2.884 4.3048-5.6875 9.5938l-0.53125 1c-15.266 28.929-29.479 58.404-42.938 88.219-5.517 12.218-11.023 24.868-16.438 37.594l1.2188 1.6876c5.1625-12.378 11.082-26.349 16.562-38.688 13.315-29.852 27.375-59.368 42.5-88.344l0.53125-1c2.7668-5.3031 5.0058-9.942 4.7812-10.062zm-67.969 141.97c-0.45417 1.076-0.92274 2.1423-1.375 3.2188l1.3482 1.375c0.36577-0.88645 1.5351-3.5203 1.9018-4.4062zm-3.375 7.9688c-6.5637 15.729-12.878 31.44-18.75 46.5-11.078 29.227-22.12 58.968-30.562 84.344-3.6831 11.113-7.2243 22.261-10.531 33.5-2.51 8.5297-4.8992 17.102-6.9375 25.781-4.7214 20.105-8.964 40.362-11.906 60.844-2.5318 17.595-4.235 35.452-3.1875 53.312 0.16897 2.8846 0.43076 5.7768 0.78125 8.6562 0.0676 0.5615 0.13915 1.1273 0.21875 1.6875 0.54402 3.8641 1.2819 7.7107 2.2812 11.5 1.6091 6.1177 3.9453 12.13 7.4062 17.531 3.1333 4.8854 7.2372 9.166 12.188 12.281 5.2998 3.315 11.377 5.2234 17.5 5.9688 3.805 0.4704 7.6985 0.42682 11.5-0.28125 3.5043-0.65601 6.8806-1.8784 10-3.5938 6.4246-3.5538 11.56-9.0485 15.438-15.125 4.4276-6.9216 7.4385-14.596 9.5938-22.438 2.3692-8.6013 3.7176-17.47 4.2812-26.344 0.56872-8.9264 0.35782-17.899-0.71875-26.781-0.97841-8.0933-2.6522-16.148-5.4688-23.844-2.2982-6.3102-5.4207-12.503-10.094-17.5-1.952-2.0844-4.213-3.9301-6.7812-5.2812-2.4487-1.2844-5.1694-2.0919-7.9375-2.2812-5.1368-0.34673-10.345 0.94369-14.688 3.7188-4.4837 2.8868-7.9494 7.0694-10.625 11.562-3.0962 5.1838-5.2625 10.855-6.8438 16.625-1.7299 6.3017-2.804 12.757-3.3438 19.25-0.5393 6.4762-0.54111 12.99 0 19.469 0.48494 5.8247 1.3948 11.657 3.0938 17.281 1.3437 4.4767 3.1957 8.9365 6.1875 12.656 1.1916 1.481 2.5862 2.8343 4.25 3.8438 1.532 0.92655 3.2932 1.5094 5.0938 1.6562 5.8806 0.43413 11.544-2.7986 14.938-7.5 4.5856-6.3671 5.8834-14.515 5.5-22.219-0.25474-5.435-0.81889-10.904-2.3125-16.188-0.8765-3.1459-2.1027-6.3589-4.4062-8.8438-0.7711-0.82955-1.7062-1.5623-2.7812-2.0312-0.9345-0.4032-1.9503-0.5705-2.9688-0.5-2.2202 0.17962-4.3073 1.3933-5.8125 2.875-4.32 4.2114-6.1947 10.24-6.8438 16.125-0.89269 6.722 0.28132 21.188 5.5 22.062-4.5034-2.1367-5.3711-13.052-4.4375-21.938 0.69097-5.7242 2.5013-11.538 6.5938-15.438 1.4165-1.3353 3.2648-2.4346 5.0938-2.5312 0.82497-0.0553 1.6457 0.10525 2.4062 0.4375 0.8883 0.38293 1.6868 1.0139 2.375 1.75 2.1007 2.2402 3.2233 5.3022 4.0938 8.375 1.4368 5.1479 1.9531 10.517 2.1875 15.906 0.30444 7.5182-0.95921 15.394-5.3438 21.344-3.1769 4.3206-8.4134 7.3228-13.656 6.8438-1.5493-0.1282-3.0645-0.6835-4.4062-1.5-1.4729-0.89304-2.7673-2.1225-3.875-3.5-2.8031-3.4844-4.5308-7.7774-5.8438-12.156-1.6359-5.4919-2.513-11.195-2.9688-16.938-0.50487-6.3832-0.43459-12.806 0.125-19.188 0.56206-6.3981 1.6196-12.771 3.3438-18.938 1.5818-5.648 3.6798-11.154 6.6875-16.125 2.6066-4.2942 5.9005-8.2196 10.062-10.844 3.9698-2.5233 8.8034-3.6839 13.5-3.3438 2.4668 0.17636 4.8998 0.90067 7.0938 2.0625 2.3154 1.222 4.3695 2.9271 6.1875 4.875 4.3854 4.6914 7.3253 10.659 9.5625 16.812 2.7134 7.5017 4.3176 15.409 5.25 23.375 1.02 8.738 1.1918 17.564 0.59375 26.344-0.59619 8.7282-1.9573 17.419-4.3125 25.812-2.1519 7.653-5.0967 15.088-9.375 21.688-3.7488 5.7675-8.5668 10.917-14.5 14.125-2.8693 1.5613-6.0103 2.6652-9.2188 3.25-3.4828 0.63844-7.0795 0.66826-10.625 0.21875-5.7714-0.74317-11.411-2.5143-16.25-5.5938-4.5313-2.8647-8.3444-6.8788-11.25-11.438-3.2299-5.0625-5.4003-10.79-6.9375-16.688-0.95038-3.6564-1.6454-7.395-2.1562-11.156-0.0733-0.54548-0.14925-1.0785-0.21875-1.625-0.35292-2.8034-0.60054-5.6398-0.78125-8.4688-1.1187-17.534 0.47523-35.202 2.9062-52.719 2.8323-20.373 6.9729-40.571 11.594-60.656 1.9827-8.6185 4.3476-17.137 6.8125-25.656 3.2467-11.219 6.7163-22.389 10.344-33.5 9.2685-28.39 19.409-56.488 30.125-84.375 6.2777-15.747 12.5-31.31 18.844-46.781z" fill="#ece1d9"/>
  <path d="m108.58 320.33c119.72-5.4666 259.53-3.3399 464.98 14.212-161.37-12.174-315.08-15.954-464.98-14.212z" fill="#e8dccf"/>
  <path d="m106.44 190.72c-0.36034 0.0221-0.84697 0.13088-1.3438 0.28125l-0.15625 0.0625c-6.5923 2.0571-12.852 5.2719-18.281 9.5938-1.9203 1.5297-4.7955 4.5763-6.5 6.3438l3.0938-1.2813c1.3563-1.4042 2.7486-2.7488 4.25-4 5.1946-4.3322 11.243-7.6408 17.688-9.8125l0.1875-0.0625c0.96806-0.32834 1.7481-0.78696 1.6875-1-0.0303-0.10652-0.26466-0.14706-0.625-0.125zm-27.844 20.406-2.375 0.4375c-1.3216 1.7821-2.5603 3.6198-3.6875 5.5312-6.9287 11.758-10.249 25.47-10.469 39.156-0.0025 0.0976-0.0018 0.18362 0 0.28125 0.0098 1.0493 0.0479 2.1098 0.09375 3.1562 0.3157 7.337 1.5014 14.645 3.6562 21.656 2.0492 6.673 5.002 13.072 8.9375 18.844 3.7112 5.4446 8.3404 10.313 13.844 13.938 4.9479 3.255 10.563 5.4324 16.375 6.4062l0.21875 0.0312c1.0281 0.16193 1.9408 0.0635 1.9688-0.15625s-0.84304-0.52715-1.8438-0.71875l-0.1875-0.0312c-5.6669-1.081-11.089-3.3303-15.812-6.5938-5.2642-3.6328-9.6686-8.4506-13.156-13.812-3.6997-5.69-6.3985-11.996-8.25-18.531-1.944-6.8675-2.9462-13.998-3.0938-21.125-0.02024-1.0169-0.01439-2.0448 0-3.0625 0.0023-0.0947 0.0015-0.18655 0-0.28125-0.07379-13.276 2.8175-26.668 9.3125-38.25 1.3381-2.3881 2.8222-4.6845 4.4688-6.875z" fill="#ffe6d5"/>
  <path d="m181.12 320.12c-0.1995-0.0962-1.6652 2.446-3.1562 5.5l-0.25 0.5625-34.188 70.281c-12.063 26.045-23.696 52.315-34.75 78.812-12.487 29.932-24.279 60.175-34.969 90.812-1.1582 3.3193-2.3051 6.6395-3.4375 9.9688-0.10305 0.30011-0.18221 0.60479-0.28125 0.90625-8.8252 26.604-16.783 53.517-23.062 80.844-2.423 10.544-4.5843 22.022-6.375 32.696l2.25-2.3526c1.79-10.004 3.9055-19.949 6.25-29.844 6.4446-27.198 14.545-53.983 23.531-80.469 0.1026-0.29955 0.21346-0.60551 0.3125-0.90625 1.1072-3.3297 2.2105-6.6478 3.3438-9.9688 10.459-30.648 22.042-60.919 34.312-90.906 10.86-26.54 22.279-52.859 34.156-78.969l33.688-70.531 0.28125-0.5625c1.4603-3.0684 2.5432-5.7788 2.3438-5.875zm-140.03 378.88-2.375 3.4062c-1.6615 12.114-2.7794 24.324-2.9375 36.562-0.14423 11.07 0.45779 22.204 2.5938 33.094 1.7918 9.1486 4.6992 18.167 9.4688 26.219 4.2758 7.2145 10.188 13.524 17.344 17.906 5.8563 3.5794 12.39 5.8472 19.125 7.0938 0.20979 0.0396 0.4461 0.0874 0.65625 0.125 3.378 0.58681 6.3241 0.59562 6.3438 0.375s-2.8593-0.63763-6.1875-1.25c-0.20742-0.0371-0.41796-0.0859-0.625-0.125-6.6383-1.2749-13.079-3.5463-18.781-7.0938-6.9701-4.3278-12.703-10.536-16.844-17.625-4.6304-7.9239-7.4081-16.854-9.125-25.906-2.0413-10.778-2.5896-21.787-2.375-32.781 0.25173-12.819 1.5773-25.615 3.4688-38.312 0.0837-0.56173 0.16399-1.1261 0.25-1.6875z" fill="#ece1d9"/>
 </g>
</svg>
