<?xml version='1.0' encoding='utf-8'?>
<svg xmlns="http://www.w3.org/2000/svg" xmlns:xlink="http://www.w3.org/1999/xlink" version="1.1" viewBox="0 0 101.84856 110.21118">
 <defs>
  <pattern id="n" xlink:href="#i" patternTransform="matrix(.53187 .15416 -.30478 1.0515 0 0)"/>
  <pattern id="i" width="2" height="1" patternTransform="translate(0) scale(10)" patternUnits="userSpaceOnUse">
   <rect y="-.5" width="1" height="2"/>
  </pattern>
  <pattern id="m" patternTransform="matrix(.80172 .37094 -.40275 .87048 22.396 -14.77)" xlink:href="#a"/>
  <pattern id="l" patternTransform="matrix(.73781 .17779 -.23635 .98085 0 0)" xlink:href="#a"/>
  <pattern id="k" patternTransform="matrix(.7455 .34493 -.37492 .81033 22.396 -14.77)" xlink:href="#a"/>
  <pattern id="j" patternTransform="scale(.64286 .69643)" xlink:href="#a"/>
  <pattern id="a" width="10" height="10" patternTransform="translate(0) scale(10)" patternUnits="userSpaceOnUse">
   <circle cx="2.567" cy=".81" r=".45"/>
   <circle cx="3.048" cy="2.33" r=".45"/>
   <circle cx="4.418" cy="2.415" r=".45"/>
   <circle cx="1.844" cy="3.029" r=".45"/>
   <circle cx="6.08" cy="1.363" r=".45"/>
   <circle cx="5.819" cy="4.413" r=".45"/>
   <circle cx="4.305" cy="4.048" r=".45"/>
   <circle cx="5.541" cy="3.045" r=".45"/>
   <circle cx="4.785" cy="5.527" r=".45"/>
   <circle cx="2.667" cy="5.184" r=".45"/>
   <circle cx="7.965" cy="1.448" r=".45"/>
   <circle cx="7.047" cy="5.049" r=".45"/>
   <circle cx="4.34" cy=".895" r=".45"/>
   <circle cx="7.125" cy=".34" r=".45"/>
   <circle cx="9.553" cy="1.049" r=".45"/>
   <circle cx="7.006" cy="2.689" r=".45"/>
   <circle cx="8.909" cy="2.689" r=".45"/>
   <circle cx="9.315" cy="4.407" r=".45"/>
   <circle cx="7.82" cy="3.87" r=".45"/>
   <circle cx="8.27" cy="5.948" r=".45"/>
   <circle cx="7.973" cy="7.428" r=".45"/>
   <circle cx="9.342" cy="8.072" r=".45"/>
   <circle cx="8.206" cy="9.315" r=".45"/>
   <circle cx="9.682" cy="9.475" r=".45"/>
   <circle cx="9.688" cy="6.186" r=".45"/>
   <circle cx="3.379" cy="6.296" r=".45"/>
   <circle cx="2.871" cy="8.204" r=".45"/>
   <circle cx="4.59" cy="8.719" r=".45"/>
   <circle cx="3.181" cy="9.671" r=".45"/>
   <circle cx="5.734" cy="7.315" r=".45"/>
   <circle cx="6.707" cy="6.513" r=".45"/>
   <circle cx="5.73" cy="9.67" r=".45"/>
   <circle cx="6.535" cy="8.373" r=".45"/>
   <circle cx="4.37" cy="7.154" r=".45"/>
   <circle cx=".622" cy="7.25" r=".45"/>
   <circle cx=".831" cy="5.679" r=".45"/>
   <circle cx="1.257" cy="8.519" r=".45"/>
   <circle cx="1.989" cy="6.877" r=".45"/>
   <circle cx=".374" cy="3.181" r=".45"/>
   <circle cx="1.166" cy="1.664" r=".45"/>
   <circle cx="1.151" cy=".093" r=".45"/>
   <circle cx="1.151" cy="10.093" r=".45"/>
   <circle cx="1.302" cy="4.451" r=".45"/>
   <circle cx="3.047" cy="3.763" r=".45"/>
  </pattern>
  <radialGradient id="o" cx="43.949" cy="44.006" r="2.4887" gradientTransform="matrix(1 0 0 1.0127 0 -.55194)" gradientUnits="userSpaceOnUse">
   <stop stop-color="#c6cbd6" offset="0"/>
   <stop stop-color="#abbcdd" offset="1"/>
  </radialGradient>
 </defs>
 <g transform="translate(-4.6503 1.8533)">
  <g transform="matrix(-.28699 .95793 .95793 .28699 15.691 -11.405)" fill-rule="evenodd" stroke-width="1.7717">
   <path d="m9.4702 17.153c-0.90211 2.5231-0.34776 3.9036 0.75761 4.7982l37.754 30.557c3.9143-0.0083 8.0812-0.23534 11.996 1.0102l2.5254 0.63135 2.7779-8.0812-3.7881-0.12627-6.8185-2.0203c-15.068-10.025-30.768-19.265-45.204-26.769z" fill="#bbcdd8" stroke="#7d8a9b"/>
   <path transform="matrix(.14179 .9899 .9899 -.14179 -5.1479 5.4577)" d="m57.141 57.381c-0.44342 0.07961-0.88662 0.42635-1.3301 0.41602l-6.4453 3.0918c-0.56778 0.7434-0.59407 1.2501 0.01758 2.8027 1.2188 3.6343 2.6457 6.9908 3.6113 10.963 1.561 6.9794 1.6507 10.847 3.1309 15.625 0.97391 3.1439 3.0927 5.8345 6.1094 7.0332 3.2585 1.2948 7.9747 0.68427 10.842-0.50977 3.157-1.3148 5.347-1.7802 10.111-5.959 1.5098-1.3243 2.113-4.0599 1.293-5.6465-0.84224-1.6296-2.1021-2.5206-4.0723-4.3926-1.3558-1.2883-4.7737-1.6518-6.5918-3.2656-5.6933-5.0538-10.626-10.471-15.346-18.977-0.44385-1.075-0.88666-1.2613-1.3301-1.1816zm7.4238 19.775c2.8843 0.15548 6.0604 2.204 8.0391 4.252 1.8191 1.8828 3.1124 5.0233 2.2988 7.5117-0.76097 2.3276-3.5229 3.7496-5.8848 4.3965-4.0466 1.1083-8.8332-1.0391-10.248-4.8555-1.2961-3.4962-0.2431-9.0327 3.0625-10.758 0.84153-0.43918 1.771-0.5987 2.7324-0.54688z" fill="#ec1f1f" stroke="#c50000"/>
  </g>
  <path d="m49.18 79.973c-0.67434-0.3251-1.5901-0.48726-2.3459-0.42962-4.8973 0.37349-10.068 5.1709-10.104 12.569-0.02421 4.8694 5.0444 8.7485 9.826 9.67 3.8735 0.74651 8.3895-1.7411 9.7234-5.4535 0.85499-2.3797 0.16096-7.667-1.9934-10.776-1.2951-1.8691-3.0827-4.6047-5.1057-5.5799zm-0.8317 2.2687c1.9958 0.86671 3.7045 2.9341 4.637 4.8527 1.5193 3.1259 2.3458 7.8636-3e-3 10.425-2.0632 2.2502-6.4073 2.1911-9.1235 0.79734-3.1803-1.6319-5.9905-5.6861-5.4729-9.2229 0.51782-3.5383 4.3159-7.1282 7.8891-7.2694 0.71051-0.02806 1.4079 0.12802 2.0732 0.41692z" fill="url(#k)" fill-rule="evenodd" opacity=".339"/>
  <path d="m48.757 61.575s0.42299 9.8887 1.7822 14.647c1.0679 3.7384 2.7199 7.6844 4.7477 11.002 1.2116 1.9821 3.2478 3.667 4.5439 5.5948 1.2387 1.8426 3.3592 5.3911 3.3592 5.3911 0.47713-1.0889-0.73472-3.9622-1.9738-6.4717-0.74988-1.5186-3.0769-2.695-4.0335-4.5717-1.9458-3.817-3.3515-7.8046-4.3728-11.812-1.0865-4.2634-1.9926-13.023-1.9926-13.023-0.12744-1.2509-0.66611-0.90851-1.1526-1.1236-0.31368 0.05152-0.95305-0.21264-0.90768 0.36707z" fill="url(#m)" fill-rule="evenodd" opacity=".357"/>
  <path d="m9.4702 17.153c-0.90211 2.5231-0.00803 4.252 0.75761 4.7982 18.656 13.31 25.17 20.371 37.754 30.557 3.9143-0.0083 8.0812-0.23534 11.996 1.0102l2.5254 0.63135 2.7779-8.0812-3.7881-0.12627-6.8185-2.0203c-15.068-10.025-30.768-19.265-45.204-26.769z" fill="#c8d4db" fill-rule="evenodd" stroke="#7d8a9b" stroke-width="1.7717"/>
  <path d="m63.15 45.105c-0.40959 0.05944-0.6977 0.25026-1.0254 0.58398l-2.1465 6.8184c0.14622 0.87502-1.1193 1.9515 1.1348 2.5254 9.0893 3.4661 15.151 7.5827 20.961 12.502 1.8553 1.5709 2.7005 4.9011 4.168 6.0605 2.1324 1.6848 3.3763 2.4234 4.9238 3.4082 2.0443 1.3009 3.5461 0.32034 5.0508-1.0098 4.0867-3.6125 4.2995-8.8517 5.3027-12.121 1.2572-4.0969 0.23008-7.5655-1.5137-10.607-1.6144-2.8162-4.5798-4.5325-7.8301-5.0508-4.9398-0.7877-8.7799-0.3272-15.91-0.88281-4.0688-0.39268-7.5929-1.3303-11.363-2.0215-0.81186-0.19266-1.3424-0.26451-1.752-0.20508zm26.066 6.5781c0.49702-0.01846 0.98369 0.0021 1.4453 0.06641 4.0313 0.56165 7.1562 4.7766 6.9434 8.9668-0.12421 2.4457-0.91962 5.448-3.0293 6.6914-2.2555 1.3293-5.6004 0.74117-7.8301-0.63086-3.2338-1.9899-6.9259-6.0577-5.9336-9.7227 0.85266-3.1492 4.9252-5.2419 8.4043-5.3711z" fill="#ec1f1f" fill-rule="evenodd" stroke="#c50000" stroke-width="1.7717"/>
  <path d="m46.656 43.417c0 1.1158-0.73492 2.0834-1.6415 2.0834-0.90657-1e-6 -2.2728-1.0308-2.2728-2.1466s1.1769-1.8309 2.0834-1.8309c0.90657 0 1.8309 0.77825 1.8309 1.894z" color="#000000" fill="url(#o)" fill-rule="evenodd" stroke="#323c48" stroke-linejoin="round" stroke-width="1.063"/>
  <path d="m85.928 49.289c-0.57988-6.15e-4 -1.1512 0.02018-1.707 0.0625-3.8852 0.29583-9.6956 1.3612-10.48 5.1777-0.59425 2.8898 5.3896 6.9466 8.572 10.316 2.5196 2.6675 6.019 5.8639 9.322 5.6024 2.8049-0.22205 6.1633-2.4046 7.3025-4.9774 1.5472-3.4944 1.1198-9.3289-1.3371-12.256-2.5085-2.9887-7.6127-3.9206-11.672-3.9249zm3.6973 2.1758c0.82458 0.01407 1.6188 0.13345 2.3398 0.36914 3.4934 1.142 5.6845 5.7016 5.8027 9.375 0.08138 2.5285-1.2782 5.6268-3.5703 6.6973-2.7554 1.2869-6.5428 0.0094-8.9297-1.875-2.7899-2.2027-5.8465-6.3317-4.5527-9.6426 1.1963-3.0616 5.337-4.9848 8.9102-4.9238z" fill="url(#j)" fill-rule="evenodd" opacity=".37"/>
  <path d="m64.845 45.482c-1.8499 1.8271-2.2115 4.0897-2.6963 6.617 0.12561 0.84289 0.22558 1.4309 0.68999 1.7091 0 0 9.4678 3.852 13.859 6.9665 3.2781 2.325 6.0871 5.5921 8.534 8.7802 0.90603 1.1805 1.3419 2.5741 2.3251 3.6911 1.513 1.7189 5.0201 3.862 5.3773 4.2638-0.55579 0.41632-6.4322-2.961-7.784-5.1107-1.074-1.7078-1.493-3.5826-2.9565-4.8275-2.9393-2.5004-5.9477-4.5191-9.0097-6.6476-4.0596-2.8218-12.285-5.964-12.285-5.964-0.99652-0.29495-1.3078-1.026-0.99483-2.1542l2.2205-6.9894c0.50508-0.61869 2.0816-0.47299 2.7206-0.33416z" fill="url(#l)" fill-rule="evenodd" opacity=".332"/>
  <path d="m9.1545 19.161c9.9934 6.1142 21.457 12.964 32.186 19.445 0.75282 0.51335 2.1766-0.2356 2.7905-1.5026-11.42-7.74-23.09-13.479-34.661-20.014-0.71168 1.1661-0.63948 1.9812-0.31567 2.0708z" fill="url(#n)" fill-rule="evenodd" opacity=".693" stroke="#7d8a9b" stroke-width="1.063"/>
 </g>
</svg>